<svg xmlns="http://www.w3.org/2000/svg" version="1.1" xmlns:xlink="http://www.w3.org/1999/xlink" xmlns:svgjs="http://svgjs.dev/svgjs" width="1920" height="1080" preserveAspectRatio="none" viewBox="0 0 1920 1080"><g mask="url(&quot;#SvgjsMask1097&quot;)" fill="none"><rect width="1920" height="1080" x="0" y="0" fill="rgba(7, 21, 35, 1)"></rect><path d="M1383.306,967.822C1418.584,969.361,1461.072,972.888,1478.809,942.354C1496.58,911.76,1472.207,876.73,1453.754,846.542C1436.46,818.251,1416.379,788.498,1383.306,786.122C1346.666,783.49,1310.61,802.835,1292.838,834.984C1275.558,866.243,1281.118,905.085,1301.223,934.606C1319.03,960.753,1351.701,966.443,1383.306,967.822" fill="rgba(28, 83, 142, 0.4)" class="triangle-float2"></path><path d="M1058.833,814.86C1143.7,814.278,1223.383,771.998,1265.99,698.599C1308.768,624.907,1309.878,532.389,1264.768,460.101C1221.994,391.555,1139.485,361.786,1058.833,366.632C986.31,370.989,930.603,421.14,891.72,482.514C848.979,549.978,810.822,630.122,846.699,701.473C885.304,778.248,972.9,815.449,1058.833,814.86" fill="rgba(28, 83, 142, 0.4)" class="triangle-float2"></path><path d="M760.319,1472.716C878.354,1470.897,974.898,1384.896,1028.529,1279.733C1077.3,1184.101,1066.778,1071.891,1011.737,979.725C958.192,890.064,864.594,836.336,760.319,830.614C643.834,824.222,517.44,850.009,456.092,949.236C392.278,1052.451,416.421,1183.31,477.395,1288.228C538.028,1392.559,639.663,1474.576,760.319,1472.716" fill="rgba(28, 83, 142, 0.4)" class="triangle-float1"></path><path d="M1600.438,439.528C1690.882,434.552,1766.906,378.384,1812.026,299.84C1856.954,221.63,1869.621,126.407,1825.504,47.737C1780.498,-32.518,1692.43,-75.489,1600.438,-77.467C1504.558,-79.529,1409.401,-43.254,1357.959,37.684C1302.725,124.587,1291.073,237.414,1344.272,325.577C1396.022,411.339,1500.423,445.031,1600.438,439.528" fill="rgba(28, 83, 142, 0.4)" class="triangle-float3"></path><path d="M567.54 237.63 a267.33 267.33 0 1 0 534.66 0 a267.33 267.33 0 1 0 -534.66 0z" fill="rgba(28, 83, 142, 0.4)" class="triangle-float3"></path><path d="M64.6044664702355 1198.2447980764723L196.81085601198663 1083.319536993262 81.88559492877638 951.1131474515109-50.32079461297474 1066.0384085347212z" fill="rgba(28, 83, 142, 0.4)" class="triangle-float2"></path></g><defs><mask id="SvgjsMask1097"><rect width="1920" height="1080" fill="#ffffff"></rect></mask><style>
                @keyframes float1 {
                    0%{transform: translate(0, 0)}
                    50%{transform: translate(-30px, -30)}
                    100%{transform: translate(0, 0)}
                }

                .triangle-float1 {
                    animation: float1 1s infinite;
                }

                @keyframes float2 {
                    0%{transform: translate(0, 0)}
                    50%{transform: translate(-50px, -15px)}
                    100%{transform: translate(0, 0)}
                }

                .triangle-float2 {
                    animation: float2 3s infinite;
                }

                @keyframes float3 {
                    0%{transform: translate(0, 0)}
                    50%{transform: translate(0, -30px)}
                    100%{transform: translate(0, 0)}
                }

                .triangle-float3 {
                    animation: float3 5s infinite;
                }
            </style></defs></svg>